<mxfile host="app.diagrams.net" modified="2021-07-05T10:31:16.246Z" agent="5.0 (Macintosh; Intel Mac OS X 10_15_7) AppleWebKit/537.36 (KHTML, like Gecko) Chrome/91.0.4472.106 Safari/537.36" etag="O7-BAKFnRldO0w_2kfA9" version="14.7.3" type="github">
  <diagram id="c8v-kaahiSLXKQiEAVcO" name="Page-1">
    <mxGraphModel dx="1250" dy="811" grid="1" gridSize="10" guides="1" tooltips="1" connect="1" arrows="1" fold="1" page="1" pageScale="1" pageWidth="827" pageHeight="1169" math="0" shadow="0">
      <root>
        <mxCell id="0" />
        <mxCell id="1" parent="0" />
        <mxCell id="pL3rWaC8xF-uQzeE3CF4-1" value="新用户引流-H5" style="rounded=1;whiteSpace=wrap;html=1;" vertex="1" parent="1">
          <mxGeometry x="40" y="525" width="120" height="60" as="geometry" />
        </mxCell>
      </root>
    </mxGraphModel>
  </diagram>
</mxfile>
